<?xml version="1.0" standalone="no"?>
<!DOCTYPE svg PUBLIC "-//W3C//DTD SVG 20010904//EN"
 "http://www.w3.org/TR/2001/REC-SVG-20010904/DTD/svg10.dtd">
<svg version="1.0" xmlns="http://www.w3.org/2000/svg"
 width="1024.000000pt" height="1024.000000pt" viewBox="0 0 1024.000000 1024.000000"
 preserveAspectRatio="xMidYMid meet">

<g transform="translate(0.000000,1024.000000) scale(0.100000,-0.100000)"
fill="#000000" stroke="none">
<path d="M5180 8145 c-38 -10 -46 -16 -48 -39 -3 -22 -13 -31 -47 -46 -32 -14
-46 -27 -51 -45 -8 -31 9 -73 36 -92 25 -17 15 -43 -16 -43 -64 0 -85 -82 -33
-131 33 -31 31 -49 -7 -49 -60 0 -85 -80 -39 -126 30 -30 32 -44 4 -44 -23 0
-60 -18 -71 -34 -17 -25 -8 -77 17 -100 32 -30 32 -42 -4 -49 -63 -13 -83 -83
-36 -127 l25 -23 -138 -77 c-75 -43 -249 -148 -385 -234 -136 -86 -253 -156
-260 -156 -6 0 -52 23 -102 51 -49 28 -116 57 -149 66 -196 50 -438 -115 -580
-395 -42 -83 -103 -244 -128 -340 -18 -69 -23 -113 -23 -212 0 -119 1 -128 31
-190 22 -47 48 -81 90 -119 l59 -53 -9 -126 c-4 -70 -13 -129 -18 -131 -6 -2
-19 -12 -30 -23 -18 -18 -19 -28 -13 -86 4 -36 13 -85 20 -110 15 -48 11 -70
-17 -90 -26 -19 -22 -54 8 -87 l27 -29 -8 -140 c-5 -117 -9 -143 -23 -150 -46
-24 -130 -125 -152 -182 -28 -75 -42 -231 -34 -384 l7 -115 -46 -38 c-94 -76
-196 -246 -228 -377 -8 -30 -13 -98 -13 -150 1 -184 54 -260 261 -379 70 -41
144 -88 164 -106 43 -38 219 -135 246 -135 10 0 99 -43 198 -96 99 -53 306
-161 460 -241 154 -80 312 -164 350 -188 107 -64 206 -115 225 -115 10 0 79
-29 155 -65 173 -82 208 -91 288 -70 70 18 107 39 198 111 77 61 105 108 89
150 -9 23 -6 33 26 80 30 43 43 54 64 54 46 0 212 46 285 79 38 18 233 132
434 254 389 237 458 290 501 382 13 28 50 78 82 112 75 80 98 132 111 257 l11
101 45 31 c99 66 211 249 251 407 50 198 52 427 6 669 -88 464 -98 581 -97
1153 0 482 -5 565 -41 647 -24 56 -92 116 -242 212 l-86 56 0 125 c0 102 -4
134 -21 181 -26 70 -77 127 -147 166 -37 22 -51 35 -48 47 31 102 32 171 5
228 -17 36 -34 51 -93 84 -39 22 -316 177 -616 345 -597 333 -566 320 -680
289z m145 -24 c22 -10 240 -130 485 -268 245 -138 505 -283 579 -323 152 -83
171 -104 171 -186 0 -29 -13 -103 -30 -165 -16 -63 -55 -213 -86 -334 -238
-937 -278 -1075 -298 -1054 -5 5 130 537 296 1174 87 331 95 389 63 443 -23
38 -60 62 -470 289 -583 325 -760 425 -769 434 -16 15 16 10 59 -10z m-70 -15
c11 -7 101 -58 200 -113 99 -55 275 -153 390 -218 116 -65 291 -163 390 -218
215 -119 231 -130 250 -167 22 -43 18 -91 -20 -235 -19 -71 -107 -411 -195
-755 -117 -453 -166 -630 -180 -645 -33 -33 -53 -116 201 874 179 695 179 694
143 763 -15 29 -54 54 -294 185 -204 113 -798 445 -875 490 -36 21 -65 41 -65
46 0 12 34 8 55 -7z m55 -94 c58 -33 317 -177 575 -321 259 -143 478 -265 488
-271 29 -17 57 -72 57 -114 0 -21 -42 -201 -94 -400 -52 -198 -138 -532 -191
-741 -53 -209 -100 -396 -105 -415 -7 -25 -20 -41 -48 -57 l-38 -21 -18 26
c-27 40 -66 65 -346 220 -754 416 -722 397 -742 436 -18 36 -44 46 -64 26 -6
-6 -19 -8 -28 -4 -15 6 -17 14 -12 47 9 55 10 56 57 46 69 -16 109 13 90 64
-13 32 -39 41 -68 22 -41 -27 -51 -9 -32 58 l10 38 59 -7 c52 -6 59 -4 69 14
16 31 13 57 -8 76 -19 17 -21 17 -50 0 -44 -26 -55 -11 -39 50 l13 48 54 -6
c43 -5 58 -3 72 10 23 21 24 57 3 78 -19 20 -38 20 -54 1 -14 -17 -36 -20 -45
-6 -3 6 0 31 6 56 l12 46 57 -7 c52 -6 59 -4 69 14 15 29 14 57 -5 73 -12 10
-22 10 -51 0 -19 -7 -39 -9 -43 -5 -11 12 10 104 24 104 6 0 28 -4 48 -9 61
-14 103 33 71 78 -17 25 -40 27 -64 5 -35 -32 -48 -1 -28 67 11 34 14 37 36
28 77 -29 137 18 103 82 -13 23 -37 25 -60 4 -26 -23 -51 -9 -43 24 17 72 18
73 77 66 49 -6 55 -5 70 16 21 30 20 42 -3 70 -18 22 -19 22 -44 6 -54 -35
-67 -19 -45 55 l11 39 57 -7 c64 -7 84 6 78 52 -4 36 -31 53 -58 36 -19 -11
-60 -17 -60 -7 0 2 5 27 11 54 l11 51 57 -6 c65 -7 85 6 79 52 -5 41 -31 53
-69 30 -42 -25 -53 -12 -39 50 17 78 17 78 43 62 12 -9 69 -42 127 -76z m-200
18 c0 -5 -7 -10 -15 -10 -24 0 -29 -29 -10 -50 9 -10 42 -24 73 -31 62 -12 54
-30 -8 -19 -59 11 -90 35 -90 70 0 17 7 33 18 39 22 13 32 14 32 1z m-45 -190
c-3 -5 -13 -10 -21 -10 -8 0 -14 -6 -14 -13 0 -23 33 -44 77 -52 24 -4 45 -11
49 -16 10 -17 -57 -9 -96 11 -32 17 -40 26 -40 49 0 15 3 31 7 34 10 11 45 8
38 -3z m-35 -179 c0 -5 -9 -11 -20 -14 -46 -12 1 -55 70 -64 47 -7 54 -23 10
-23 -65 0 -125 43 -112 80 9 25 52 43 52 21z m-44 -168 c-4 -5 -12 -9 -17 -9
-5 -1 -13 -2 -19 -3 -5 0 -10 -10 -10 -21 0 -22 37 -44 93 -54 53 -10 48 -30
-5 -22 -48 8 -83 27 -97 54 -13 25 12 62 41 62 12 0 18 -3 14 -7z m-51 -183
c-3 -5 -13 -10 -21 -10 -8 0 -14 -9 -14 -20 0 -20 45 -50 77 -50 10 0 25 -5
33 -10 11 -7 4 -10 -27 -10 -33 0 -50 7 -75 29 -29 26 -31 31 -20 55 7 16 20
26 32 26 12 0 18 -4 15 -10z m-58 -184 c-9 -7 -17 -18 -17 -24 0 -17 40 -40
83 -47 20 -4 37 -11 37 -16 0 -16 -45 -9 -90 14 -53 26 -63 57 -29 81 27 18
42 10 16 -8z m-77 -46 c-8 -6 -10 -10 -5 -10 6 -1 -2 -8 -18 -16 -15 -8 -32
-12 -37 -9 -5 3 -12 0 -16 -6 -5 -8 -3 -9 6 -4 9 6 11 4 6 -4 -5 -7 -15 -10
-23 -7 -8 3 -12 2 -9 -3 3 -4 -45 -39 -107 -76 -61 -38 -176 -110 -255 -162
-84 -55 -148 -90 -157 -87 -22 9 -18 18 18 39 17 10 113 70 212 133 198 126
386 234 394 226 3 -3 -1 -9 -9 -14z m45 -120 c3 -5 -3 -10 -14 -10 -29 0 -27
-35 2 -54 12 -8 39 -18 60 -21 58 -11 59 -29 1 -21 -57 8 -98 34 -102 65 -6
37 36 69 53 41z m1696 -129 c14 -40 6 -134 -11 -139 -7 -3 -36 -24 -66 -48
-30 -24 -54 -42 -54 -38 0 7 69 274 76 294 7 19 39 -20 55 -69z m-2784 -17
c-3 -3 -12 -4 -19 -1 -8 3 -5 6 6 6 11 1 17 -2 13 -5z m1043 -34 c0 -5 -9 -10
-19 -10 -25 0 -34 -26 -15 -44 15 -16 76 -36 107 -36 9 0 17 -4 17 -10 0 -33
-142 18 -148 53 -2 10 4 27 14 38 18 20 44 26 44 9z m-1177 -38 c10 -10 14
-22 11 -25 -4 -4 -2 -13 5 -21 7 -8 9 -25 6 -39 -6 -23 1 -29 92 -77 237 -127
790 -430 1159 -636 369 -205 500 -274 521 -274 4 0 27 -13 50 -28 l43 -28 -41
-40 c-49 -48 -126 -158 -167 -239 -36 -72 -76 -185 -127 -355 -57 -190 -86
-237 -166 -270 -25 -11 -43 -11 -87 -2 -31 6 -59 15 -64 20 -11 11 12 120 48
232 15 47 27 104 26 128 -1 118 -130 192 -223 129 -44 -29 -51 -46 -90 -202
-18 -72 -34 -131 -35 -133 0 -1 -32 15 -70 36 -38 22 -186 101 -329 177 -143
77 -332 178 -420 225 l-160 87 2 47 c1 25 17 98 37 160 20 63 36 133 36 155 0
123 -102 194 -212 148 -43 -18 -65 -62 -106 -216 -17 -62 -33 -115 -35 -118
-8 -7 -67 49 -96 91 -15 22 -35 63 -44 90 -81 240 130 795 367 968 46 33 48
33 69 10z m3120 -78 c55 -28 195 -119 212 -138 6 -6 6 -8 2 -4 -12 9 -105 -20
-147 -45 -19 -12 -54 -39 -77 -60 l-41 -38 -79 51 c-43 29 -106 68 -141 87
l-63 36 33 34 c60 62 141 102 211 103 22 0 60 -11 90 -26z m-1999 -64 c-54
-22 -31 -62 47 -80 51 -12 66 -30 26 -30 -40 0 -112 42 -115 68 -4 29 14 52
42 51 l21 0 -21 -9z m1653 -102 c-3 -8 -6 -5 -6 6 -1 11 2 17 5 13 3 -3 4 -12
1 -19z m159 -70 c70 -38 144 -105 160 -145 28 -66 12 -139 -47 -213 -41 -53
-262 -205 -554 -384 -118 -72 -141 -82 -146 -68 -4 9 -5 20 -3 23 2 3 43 30
91 59 253 154 472 300 525 348 70 65 98 115 98 174 0 59 -26 97 -104 153 -36
26 -66 51 -66 57 0 6 -7 7 -15 4 -9 -3 -18 1 -21 9 -4 8 -9 13 -14 10 -13 -8
-44 21 -36 34 6 9 18 6 44 -10 21 -12 60 -35 88 -51z m475 39 c24 -16 41 -41
58 -82 l25 -60 2 -510 c2 -578 8 -680 64 -1006 72 -419 72 -422 67 -579 -10
-276 -83 -477 -227 -620 -73 -73 -75 -74 -78 -47 -3 22 8 40 52 88 144 155
226 464 197 742 -6 61 -29 210 -51 329 -71 390 -72 398 -79 1008 -6 548 -6
556 -28 600 -50 101 -153 106 -263 14 -26 -22 -33 -25 -41 -13 -13 21 -12 23
35 67 93 86 200 114 267 69z m-331 -452 c-7 -9 -15 -13 -19 -10 -3 3 1 10 9
15 21 14 24 12 10 -5z m-3110 -190 c0 -8 -2 -15 -4 -15 -2 0 -6 7 -10 15 -3 8
-1 15 4 15 6 0 10 -7 10 -15z m2826 -4 c-4 -5 0 -11 6 -14 7 -3 3 -4 -9 -4
-17 1 -19 4 -11 14 12 15 22 18 14 4z m-2866 -52 c14 -26 6 -65 -16 -73 -21
-8 -51 9 -59 34 -16 49 51 84 75 39z m2870 6 c-7 -8 -17 -12 -23 -8 -6 4 -3 9
9 14 27 11 28 11 14 -6z m45 -5 c3 -5 1 -10 -4 -10 -6 0 -11 5 -11 10 0 6 2
10 4 10 3 0 8 -4 11 -10z m-152 -25 c4 -8 3 -16 -1 -19 -4 -3 -9 4 -9 15 -2
23 3 25 10 4z m310 0 c4 -8 2 -17 -3 -20 -6 -4 -10 3 -10 14 0 25 6 27 13 6z
m-44 -12 c-12 -15 -12 -16 4 -10 15 6 16 4 7 -13 -15 -29 -27 -32 -26 -7 2 23
13 47 23 47 3 0 -1 -8 -8 -17z m-269 -25 c33 1 40 -1 25 -7 -11 -5 -24 -6 -28
-4 -4 3 -15 2 -24 -1 -14 -6 -13 -10 7 -31 13 -14 29 -25 36 -25 7 0 18 -8 23
-17 9 -15 10 -12 11 15 0 25 -5 35 -22 42 -13 5 -17 9 -10 9 7 1 27 -7 45 -16
18 -9 35 -16 40 -15 11 3 9 -16 -3 -23 -6 -4 -4 -12 6 -22 13 -14 17 -14 24
-2 5 7 12 11 15 7 10 -10 -328 -227 -361 -232 -9 -1 -19 -7 -22 -13 -10 -16
-342 -209 -342 -200 0 9 -71 -54 -141 -123 -100 -99 -147 -211 -169 -400 -6
-49 -10 -441 -10 -918 0 -663 -3 -833 -12 -829 -10 3 -13 69 -13 283 0 153 -4
290 -9 303 -9 26 -65 122 -76 131 -4 3 -9 13 -13 22 -8 21 -52 44 -208 106
-228 91 -211 81 -215 137 -3 28 -6 113 -7 190 -1 77 -5 145 -8 150 -4 6 -7
102 -8 214 -2 193 -1 203 16 198 10 -3 45 -15 77 -27 118 -43 255 -21 327 51
51 51 64 78 124 264 82 252 156 385 287 512 74 73 199 130 272 125 11 0 41 10
67 23 26 13 51 20 55 17 4 -4 5 -2 1 3 -7 14 164 116 183 108 8 -3 35 -5 60
-5z m0 -28 c0 -5 -7 -7 -15 -4 -8 4 -15 8 -15 10 0 2 7 4 15 4 8 0 15 -4 15
-10z m166 -15 c-17 -13 -17 -15 -4 -15 9 0 19 4 23 9 3 6 14 9 25 8 10 -1 17
-5 14 -9 -3 -4 -11 -5 -20 -1 -9 3 -14 0 -12 -8 2 -10 -5 -13 -22 -11 -14 2
-27 6 -29 8 -6 6 21 34 33 34 6 0 2 -7 -8 -15z m-3099 -87 c-3 -8 -6 -5 -6 6
-1 11 2 17 5 13 3 -3 4 -12 1 -19z m503 -425 c140 -75 293 -157 340 -181 47
-25 133 -71 192 -103 58 -33 118 -63 132 -69 26 -9 26 -11 26 -108 0 -95 -1
-99 -25 -110 -41 -19 -43 -64 -9 -238 5 -25 1 -36 -19 -56 -29 -29 -27 -70 5
-92 17 -12 18 -24 16 -115 l-3 -102 -240 120 c-264 132 -384 197 -613 334
l-153 92 6 35 c4 20 17 43 31 53 23 18 24 24 24 117 0 55 5 110 11 124 9 20 9
30 -2 48 -11 17 -15 69 -18 200 -2 97 0 182 4 188 10 15 7 17 295 -137z m-469
63 c52 -24 101 -52 111 -62 11 -13 18 -48 23 -111 7 -83 6 -93 -9 -93 -22 0
-36 40 -36 106 l0 54 -45 22 c-34 17 -45 28 -45 45 0 27 -21 39 -47 28 -10 -5
-25 -7 -34 -6 -13 1 -18 -11 -24 -56 -6 -44 -9 -53 -16 -38 -12 31 -10 130 3
143 17 17 14 17 119 -32z m3398 -166 c7 -52 30 -192 52 -310 22 -118 43 -262
46 -319 l6 -103 -61 48 -62 49 0 161 c0 88 -2 277 -5 420 -4 258 -1 265 24 54z
m-3419 85 c0 -30 -4 -55 -10 -55 -5 0 -10 25 -10 55 0 30 5 55 10 55 6 0 10
-25 10 -55z m-53 -37 c-3 -8 -6 -5 -6 6 -1 11 2 17 5 13 3 -3 4 -12 1 -19z
m1452 -12 c20 -24 10 -70 -16 -74 -31 -5 -59 39 -43 67 12 24 42 27 59 7z m61
-62 c0 -8 -4 -12 -10 -9 -5 3 -10 10 -10 16 0 5 5 9 10 9 6 0 10 -7 10 -16z
m-18 -41 c-6 -3 -10 -8 -7 -12 2 -5 -7 -6 -20 -3 l-24 4 22 18 c15 13 25 15
32 8 7 -7 6 -12 -3 -15z m-1449 -87 c105 -51 130 -53 166 -15 13 14 21 17 26
9 9 -14 -20 -47 -57 -66 -26 -14 -34 -12 -135 36 -59 28 -110 56 -114 62 -8
13 -1 31 9 26 4 -2 51 -26 105 -52z m84 2 c-3 -8 -6 -5 -6 6 -1 11 2 17 5 13
3 -3 4 -12 1 -19z m3029 -43 c11 -17 14 -34 9 -57 -13 -60 -25 -65 -19 -8 5
45 3 58 -10 69 -41 34 -130 -51 -123 -116 1 -18 -1 -33 -6 -33 -5 0 -7 23 -5
52 5 44 11 57 42 85 45 41 88 44 112 8z m-56 -115 c0 -23 -31 -27 -49 -7 -14
17 -4 27 26 27 16 0 23 -6 23 -20z m0 -56 c0 -11 -9 -14 -32 -12 -43 4 -46 23
-3 25 25 1 35 -3 35 -13z m84 0 c28 -11 17 -24 -19 -24 -24 0 -35 5 -35 15 0
15 26 20 54 9z m-169 -24 c11 -12 31 -20 49 -20 29 0 29 -1 -20 -31 -96 -60
-173 -156 -222 -273 -32 -78 -42 -220 -19 -283 8 -24 11 -43 6 -43 -20 0 -89
74 -100 108 -41 119 10 306 118 431 41 48 142 131 159 131 6 0 19 -9 29 -20z
m266 -43 c48 -32 69 -79 69 -158 0 -66 -24 -169 -39 -169 -4 0 -2 23 5 52 8
29 14 71 14 93 0 49 -35 122 -72 149 -81 59 -245 -22 -340 -168 -90 -140 -102
-309 -25 -368 l22 -17 -29 -11 c-16 -6 -32 -7 -36 -3 -18 19 -32 92 -32 157 2
153 98 320 232 406 99 64 174 76 231 37z m-36 -57 c19 -16 27 -107 15 -170 -6
-30 -26 -87 -44 -127 -38 -79 -76 -113 -200 -179 -58 -31 -72 -35 -93 -25 -72
33 -68 201 8 330 80 133 248 225 314 171z m-1901 -44 c65 -31 99 -52 106 -68
14 -32 28 -165 19 -180 -16 -26 -37 13 -44 83 l-7 70 -47 22 c-36 17 -47 28
-49 50 -2 19 -9 27 -22 27 -10 0 -22 -4 -25 -10 -3 -5 -14 -10 -25 -10 -21 0
-30 -18 -31 -68 l-1 -37 -8 30 c-10 39 -12 120 -3 128 14 14 44 6 137 -37z
m-1338 -53 c36 -23 82 -21 133 5 l42 22 147 -89 c225 -135 365 -212 630 -342
l242 -120 0 -43 c0 -51 32 -104 74 -125 37 -17 94 -2 138 38 l31 28 156 -67
c86 -37 186 -79 224 -94 l67 -28 -57 -28 c-75 -36 -142 -95 -176 -157 -48 -88
-57 -148 -57 -366 0 -197 0 -198 -25 -222 -28 -29 -64 -32 -124 -10 -86 30
-111 46 -111 71 0 28 8 29 57 9 19 -8 46 -15 59 -15 45 0 24 25 -39 48 l-63
22 13 128 c32 318 30 336 -33 392 -27 23 -44 30 -78 30 -51 0 -106 -33 -117
-70 -4 -14 -17 -107 -30 -207 -16 -135 -26 -183 -36 -183 -7 0 -22 -9 -34 -21
l-20 -20 -312 155 c-172 85 -379 195 -460 243 -145 86 -148 89 -143 118 14 80
35 253 46 365 10 112 10 131 -5 168 -20 49 -62 87 -105 97 -44 10 -118 -28
-135 -69 -6 -17 -20 -111 -30 -208 -11 -111 -22 -178 -29 -178 -16 0 -53 60
-65 106 -17 64 -15 429 3 486 21 70 59 131 113 178 l47 41 18 -35 c10 -20 30
-43 44 -53z m1294 -25 c0 -38 -3 -49 -10 -38 -16 25 -11 90 7 90 2 0 3 -24 3
-52z m1997 -27 c-5 -77 -32 -161 -57 -176 -7 -4 -5 5 4 23 21 40 46 146 46
195 0 20 3 37 6 37 4 0 4 -35 1 -79z m173 -48 c81 -54 123 -123 146 -240 26
-136 18 -207 -30 -264 l-24 -28 -5 42 c-6 45 -35 77 -69 77 -32 0 -73 -27 -87
-57 -13 -28 -16 -144 -5 -188 7 -28 -7 -39 -196 -159 l-135 -86 -6 56 c-13
110 -78 147 -145 80 l-36 -36 3 -92 4 -93 -40 -13 c-82 -27 -113 4 -125 126
-13 122 -37 187 -93 248 -26 29 -69 65 -95 80 l-47 27 45 15 c148 48 407 150
479 188 184 99 353 229 398 305 20 33 29 35 63 12z m-2185 -147 c103 -49 142
-55 174 -25 19 18 25 19 32 8 9 -15 -17 -40 -63 -60 -23 -9 -39 -5 -121 31
-111 48 -133 62 -123 79 4 7 11 10 14 9 4 -2 43 -21 87 -42z m105 -6 c0 -5 -7
-7 -15 -4 -8 4 -12 10 -9 15 6 11 24 2 24 -11z m-1400 -70 c0 -5 11 -12 23
-15 13 -4 24 -13 24 -21 0 -10 -4 -11 -14 -3 -7 6 -22 9 -33 6 -13 -3 -20 0
-20 9 0 8 -5 14 -11 14 -5 0 -7 -4 -4 -10 3 -5 2 -10 -4 -10 -6 0 -8 -7 -5
-15 4 -8 1 -15 -5 -15 -18 0 -13 28 9 50 21 21 40 26 40 10z m34 -82 c14 -20
14 -24 1 -37 -11 -12 -17 -12 -29 -1 -23 19 -20 60 5 60 4 0 15 -10 23 -22z
m56 -48 c0 -5 -2 -10 -4 -10 -3 0 -8 5 -11 10 -3 6 -1 10 4 10 6 0 11 -4 11
-10z m1400 -110 c0 -5 -4 -10 -10 -10 -5 0 -10 5 -10 10 0 6 5 10 10 10 6 0
10 -4 10 -10z m1960 -65 c0 -8 -4 -15 -10 -15 -5 0 -10 7 -10 15 0 8 5 15 10
15 6 0 10 -7 10 -15z m-3658 -86 c2 -8 7 -17 12 -20 4 -4 0 -19 -9 -33 -23
-35 -33 -23 -36 39 -3 63 -5 68 -30 54 -36 -19 -43 -3 -8 17 l34 21 17 -32 c9
-18 18 -39 20 -46z m-42 37 c0 -2 -8 -10 -17 -17 -16 -13 -17 -12 -4 4 13 16
21 21 21 13z m213 -122 c50 -26 94 -48 96 -50 2 -2 8 -47 13 -100 6 -72 5
-100 -4 -111 -22 -26 -38 13 -38 91 l0 71 -40 23 c-29 16 -40 29 -40 46 0 28
-26 41 -48 24 -8 -7 -25 -13 -36 -13 -16 0 -22 -8 -27 -38 -10 -60 -19 -55
-19 11 0 110 9 113 143 46z m-333 -15 c0 -5 -4 -9 -8 -9 -5 0 -9 7 -9 15 0 8
4 12 9 9 4 -3 8 -9 8 -15z m2976 -31 c9 -18 21 -68 25 -111 4 -43 14 -86 21
-95 7 -9 8 -13 2 -9 -7 4 -15 0 -18 -9 -11 -27 -7 -571 4 -600 13 -33 8 -39
-19 -25 -11 7 -22 25 -25 44 -5 30 -13 837 -9 837 1 0 10 -15 19 -32z m-3012
7 c-7 -16 -24 -21 -24 -6 0 8 7 13 27 20 1 1 0 -6 -3 -14z m332 -32 c-6 -47
-12 -61 -21 -51 -9 9 7 98 18 98 6 0 7 -18 3 -47z m3538 1 c3 -8 2 -12 -4 -9
-6 3 -10 10 -10 16 0 14 7 11 14 -7z m-444 -71 c-10 -16 -11 -14 -7 9 2 15 -1
29 -6 31 -6 2 -7 9 -2 17 7 11 11 8 18 -13 5 -17 4 -32 -3 -44z m-3153 10 c-3
-10 -5 -4 -5 12 0 17 2 24 5 18 2 -7 2 -21 0 -30z m3081 -18 c-2 -27 -5 -32
-15 -23 -15 12 -17 38 -3 38 5 0 6 7 3 17 -4 11 -3 14 6 9 6 -4 11 -23 9 -41z
m629 -64 c-9 -153 -30 -205 -121 -295 -123 -123 -383 -286 -588 -370 -106 -44
-148 -46 -177 -10 -20 25 -21 39 -21 276 l0 250 31 -26 c38 -32 68 -40 123
-33 l44 6 6 -49 c8 -58 26 -80 67 -80 42 0 68 16 85 53 8 18 24 44 35 58 12
15 24 47 26 73 6 46 6 46 82 88 42 23 107 61 145 85 37 24 69 43 70 41 1 -2 8
-15 16 -31 29 -58 94 -45 138 28 15 25 31 45 36 45 5 0 6 -46 3 -109z m-4032
72 c-2 -10 -4 -22 -4 -27 -1 -6 -5 -6 -11 0 -11 11 -3 44 10 44 5 0 7 -8 5
-17z m360 -31 c-3 -3 -11 0 -18 7 -9 10 -8 11 6 5 10 -3 15 -9 12 -12z m1309
0 c-6 -4 -10 -17 -9 -29 1 -13 -2 -23 -7 -23 -5 0 -6 -5 -2 -12 5 -7 3 -8 -6
-3 -9 6 -12 4 -8 -7 4 -8 2 -21 -3 -29 -6 -10 -9 -4 -9 19 0 17 4 32 10 32 5
0 7 7 4 15 -7 17 12 45 30 45 8 0 8 -2 0 -8z m44 -4 c-4 -17 -20 -28 -31 -21
-4 3 0 11 10 19 22 17 24 17 21 2z m1782 3 c0 -5 -7 -12 -16 -15 -14 -5 -15
-4 -4 9 14 17 20 19 20 6z m-2899 -23 c11 -20 10 -21 -3 -11 -8 7 -17 11 -20
8 -2 -3 -5 2 -5 10 0 22 15 18 28 -7z m-611 -18 c0 -5 -2 -10 -4 -10 -3 0 -8
5 -11 10 -3 6 -1 10 4 10 6 0 11 -4 11 -10z m237 -45 c-17 -8 -23 -21 -25 -54
-2 -23 1 -41 5 -38 14 9 36 -10 28 -23 -10 -16 -57 29 -50 48 3 8 2 19 -2 25
-12 19 -12 37 -2 37 6 0 7 5 3 12 -4 6 -3 8 4 4 6 -3 13 -2 17 4 4 6 11 8 16
5 5 -4 9 0 9 7 0 10 3 9 9 -1 7 -11 4 -18 -12 -26z m1508 -5 c0 -16 -6 -26
-18 -28 -19 -4 -32 20 -23 44 9 25 41 13 41 -16z m-1755 -2 c0 -19 -2 -20 -10
-8 -13 19 -13 30 0 30 6 0 10 -10 10 -22z m284 -27 c9 -13 174 -91 194 -91 9
0 31 9 49 19 29 18 43 18 43 0 0 -5 -22 -20 -49 -34 l-49 -24 -105 49 c-106
49 -123 62 -112 80 8 13 22 13 29 1z m550 -32 c-3 -5 -10 -7 -15 -3 -5 3 -7
10 -3 15 3 5 10 7 15 3 5 -3 7 -10 3 -15z m146 -74 c7 -9 8 -15 2 -15 -5 0
-12 7 -16 15 -3 8 -4 15 -2 15 2 0 9 -7 16 -15z m-960 -5 c0 -5 -5 -10 -11
-10 -5 0 -7 5 -4 10 3 6 8 10 11 10 2 0 4 -4 4 -10z m1700 -16 c0 -8 -4 -12
-10 -9 -5 3 -10 10 -10 16 0 5 5 9 10 9 6 0 10 -7 10 -16z m-1715 -12 c-3 -3
-11 0 -18 7 -9 10 -8 11 6 5 10 -3 15 -9 12 -12z m1692 -221 c95 -47 95 -48
91 -171 -2 -68 -6 -85 -18 -85 -12 0 -16 17 -18 82 l-3 82 -44 26 c-33 19 -45
32 -45 49 0 29 -24 40 -43 21 -8 -7 -22 -13 -32 -12 -14 2 -21 -9 -30 -48
l-11 -50 -7 35 c-8 41 6 109 24 121 14 9 27 4 136 -50z m-1140 27 c-3 -8 -6
-5 -6 6 -1 11 2 17 5 13 3 -3 4 -12 1 -19z m943 -63 c0 -24 -5 -47 -11 -50
-17 -11 -24 4 -11 25 16 27 15 49 -3 56 -8 4 -13 10 -10 15 3 4 12 6 20 2 10
-3 15 -20 15 -48z m135 -34 c-4 -28 -11 -49 -15 -46 -8 5 -4 61 6 94 10 31 16
-1 9 -48z m-215 29 c0 -5 -5 -10 -11 -10 -5 0 -7 5 -4 10 3 6 8 10 11 10 2 0
4 -4 4 -10z m160 -67 c-11 -17 -11 -17 -6 0 3 10 7 28 7 40 2 22 2 22 6 0 2
-12 -1 -30 -7 -40z m-70 -20 c0 -24 -14 -31 -25 -13 -3 6 0 10 7 11 10 0 10 2
1 6 -18 7 -16 20 2 20 9 0 15 -10 15 -24z m850 -36 c0 -2 -17 -20 -38 -40 -24
-24 -39 -32 -39 -23 0 8 4 13 9 10 4 -3 8 4 8 16 0 12 5 18 10 15 6 -3 10 -2
10 4 0 5 8 12 18 14 9 3 18 5 20 6 1 0 2 0 2 -2z m-850 -41 c0 -2 -8 -10 -17
-17 -16 -13 -17 -12 -4 4 13 16 21 21 21 13z m695 -36 c3 -5 1 -10 -4 -10 -6
0 -11 5 -11 10 0 6 2 10 4 10 3 0 8 -4 11 -10z m-785 -30 c0 -5 -5 -10 -11
-10 -5 0 -7 5 -4 10 3 6 8 10 11 10 2 0 4 -4 4 -10z m407 -12 c-3 -8 -6 -5 -6
6 -1 11 2 17 5 13 3 -3 4 -12 1 -19z m-383 -3 c-4 -8 -11 -15 -16 -15 -6 0 -5
6 2 15 7 8 14 15 16 15 2 0 1 -7 -2 -15z m156 -45 l102 -49 39 19 c46 24 49
24 49 6 0 -8 -20 -24 -45 -36 l-45 -22 -110 53 c-107 51 -118 58 -103 72 9 9
0 13 113 -43z m234 -76 c3 -8 2 -12 -4 -9 -6 3 -10 10 -10 16 0 14 7 11 14 -7z
m300 8 c3 -5 -1 -9 -9 -9 -8 0 -12 4 -9 9 3 4 7 8 9 8 2 0 6 -4 9 -8z m76 -1
c0 -6 -4 -12 -8 -15 -5 -3 -9 1 -9 9 0 8 4 15 9 15 4 0 8 -4 8 -9z m-733 -23
c-3 -8 -6 -5 -6 6 -1 11 2 17 5 13 3 -3 4 -12 1 -19z m-11 -76 c-12 -11 -18 7
-10 30 l8 23 4 -23 c2 -13 1 -26 -2 -30z m636 39 c-8 -5 -13 -11 -12 -15 3
-11 -22 -66 -30 -66 -9 0 -23 28 -25 53 -3 20 11 23 18 5 4 -10 8 -10 16 2 5
8 8 17 6 20 -2 3 6 7 18 7 15 2 18 0 9 -6z m-662 -21 c0 -5 -4 -10 -10 -10 -5
0 -10 5 -10 10 0 6 5 10 10 10 6 0 10 -4 10 -10z m-20 -36 c0 -11 -5 -10 -20
3 -11 10 -20 18 -20 19 0 1 9 0 20 -3 11 -3 20 -12 20 -19z m40 -19 c0 -9 -6
-12 -15 -9 -8 4 -12 10 -9 15 8 14 24 10 24 -6z m715 5 c3 -6 -1 -7 -9 -4 -18
7 -21 14 -7 14 6 0 13 -4 16 -10z m-388 -122 c-3 -8 -6 -5 -6 6 -1 11 2 17 5
13 3 -3 4 -12 1 -19z"/>
<path d="M5300 7642 c0 -4 158 -95 350 -202 193 -107 350 -200 350 -207 0 -6
-12 -54 -26 -105 -14 -51 -27 -115 -29 -142 -3 -27 -9 -54 -14 -59 -5 -5 -147
69 -347 180 -187 103 -345 188 -351 188 -7 0 -14 -3 -15 -7 -3 -6 486 -284
622 -353 89 -46 86 -31 35 -195 -25 -79 -47 -146 -49 -148 -2 -2 -156 80 -342
182 -186 102 -342 182 -347 179 -16 -10 15 -29 298 -183 154 -84 303 -165 331
-181 l52 -29 -14 -46 c-10 -35 -12 -66 -5 -126 5 -44 12 -82 16 -86 10 -10
101 95 122 141 13 27 23 36 36 32 9 -3 26 -8 37 -11 30 -10 24 9 -10 29 -16
10 -30 24 -30 30 0 17 78 279 85 286 3 3 15 0 25 -7 11 -7 24 -12 30 -12 20 0
10 19 -19 36 -27 16 -28 19 -19 53 6 20 18 50 28 66 10 17 30 69 44 116 23 76
29 86 46 82 24 -6 27 12 4 25 -13 7 -12 21 15 112 37 121 38 152 10 179 -23
21 -71 31 -92 19 -17 -9 -75 -105 -98 -163 -8 -22 -20 -39 -25 -38 -5 1 -159
85 -343 187 -312 174 -361 198 -361 178z m894 -198 c9 -3 16 -10 16 -15 0 -14
-34 -11 -56 6 -19 14 -19 14 3 15 12 0 28 -3 37 -6z m-58 -95 c4 -7 -1 -16
-10 -21 -25 -14 -40 -51 -86 -208 -44 -151 -46 -157 -56 -148 -6 7 81 307 104
354 16 34 35 43 48 23z m-58 -376 c2 -8 -6 -13 -22 -13 -26 0 -40 12 -29 24
11 11 46 2 51 -11z m-78 -32 c0 -12 -20 -25 -27 -18 -7 7 6 27 18 27 5 0 9 -4
9 -9z m-119 -527 c-1 -5 -11 -22 -23 -38 -20 -28 -22 -28 -29 -10 -4 10 -8 33
-8 51 -1 32 -1 32 30 19 17 -7 30 -17 30 -22z"/>
<path d="M5358 7403 c-27 -14 -48 -32 -48 -40 0 -17 0 -17 54 13 35 19 47 22
50 12 3 -7 10 -30 16 -50 6 -21 15 -40 20 -43 4 -3 27 2 50 10 23 8 48 15 55
15 7 0 20 -24 30 -52 24 -76 28 -78 110 -78 61 0 75 -3 91 -22 24 -26 103 -78
121 -78 24 0 13 19 -19 36 -18 9 -51 33 -73 55 -38 36 -43 38 -115 41 l-75 3
-21 60 c-12 32 -26 61 -33 63 -6 2 -32 -3 -58 -12 -26 -9 -48 -16 -49 -16 -2
0 -11 25 -20 55 -10 30 -22 55 -28 55 -6 0 -32 -12 -58 -27z"/>
<path d="M5182 7109 c4 -11 395 -229 411 -229 31 0 -24 37 -194 131 -188 105
-225 121 -217 98z"/>
<path d="M5080 6748 c0 -13 239 -148 260 -148 31 0 -4 26 -119 89 -71 39 -131
71 -135 71 -3 0 -6 -6 -6 -12z"/>
<path d="M5016 6521 c-8 -12 4 -20 119 -81 55 -30 250 -136 434 -237 183 -101
338 -183 343 -183 5 0 8 5 6 11 -4 12 -93 63 -553 313 -350 191 -343 188 -349
177z"/>
<path d="M5520 6510 c0 -11 149 -100 168 -100 29 0 6 21 -69 64 -84 47 -99 53
-99 36z"/>
<path d="M6227 5704 c-8 -8 1 -24 14 -24 5 0 9 7 9 15 0 15 -12 20 -23 9z"/>
<path d="M6390 5601 c-8 -6 -17 -9 -20 -7 -3 1 -15 -8 -27 -21 -28 -29 -20
-30 18 -2 16 11 33 18 37 15 5 -3 9 1 9 9 0 8 -1 15 -1 15 -1 0 -8 -4 -16 -9z"/>
<path d="M6300 5590 c0 -4 7 -7 15 -6 23 3 26 12 5 13 -11 1 -20 -2 -20 -7z"/>
<path d="M6421 4445 c-17 -73 -48 -117 -93 -130 -42 -12 -46 -31 -5 -27 15 1
27 0 27 -4 0 -3 -18 -35 -40 -72 -48 -80 -35 -98 22 -31 l38 44 0 -37 c0 -54
16 -55 29 -1 14 54 73 125 110 133 37 8 39 30 2 30 -17 0 -31 3 -31 7 0 4 16
34 36 66 20 32 33 61 30 64 -3 4 -24 -12 -46 -35 -21 -23 -42 -42 -45 -42 -3
0 -5 18 -5 39 0 60 -15 57 -29 -4z"/>
<path d="M3235 4361 c-10 -17 1 -27 78 -78 221 -143 604 -355 929 -513 199
-96 537 -250 550 -250 4 0 8 8 8 18 0 11 -16 23 -48 36 -342 137 -1118 539
-1397 724 -119 79 -112 76 -120 63z"/>
<path d="M3485 3581 c-13 -22 162 -125 495 -290 333 -165 393 -192 405 -180
14 14 -11 33 -95 69 -122 53 -577 284 -687 349 -110 66 -109 65 -118 52z"/>
<path d="M6760 4127 c-137 -133 -332 -252 -570 -348 -92 -37 -112 -51 -91 -63
27 -17 338 129 493 231 101 66 281 228 275 246 -8 24 -26 13 -107 -66z"/>
<path d="M3069 3403 c-13 -16 -12 -17 4 -4 9 7 17 15 17 17 0 8 -8 3 -21 -13z"/>
<path d="M4890 2512 c0 -12 19 -26 26 -19 2 2 -2 10 -11 17 -9 8 -15 8 -15 2z"/>
</g>
</svg>
